# xmcd CD database file
#
# Track frame offsets:
#	150
#	17155
#	34095
#
# Disc length: 1155 seconds
#
# Revision: 0
# Processed by: cddbd v1.5PL3 Copyright (c) Steve Scherf et al.
# Submitted via: CDex 1.50Beta7
#
DISCID=1b048103
DTITLE=OBLIVION DUST - セラピー
DYEAR=1998
DGENRE=Rock
TTITLE0=セラピー
TTITLE1=THERAPY
TTITLE2=WITH YOU
EXTD=YEAR: 1998
EXTT0=
EXTT1=
EXTT2=
PLAYORDER=
